<svg width="24" height="25" viewBox="0 0 24 25" fill="none" xmlns="http://www.w3.org/2000/svg">
<path d="M5.29289 5.86968C5.68342 5.47915 6.31658 5.47915 6.70711 5.86968L12 11.1626L17.2929 5.86968C17.6834 5.47915 18.3166 5.47915 18.7071 5.86968C19.0976 6.2602 19.0976 6.89336 18.7071 7.28389L13.4142 12.5768L18.7071 17.8697C19.0976 18.2602 19.0976 18.8934 18.7071 19.2839C18.3166 19.6744 17.6834 19.6744 17.2929 19.2839L12 13.991L6.70711 19.2839C6.31658 19.6744 5.68342 19.6744 5.29289 19.2839C4.90237 18.8934 4.90237 18.2602 5.29289 17.8697L10.5858 12.5768L5.29289 7.28389C4.90237 6.89336 4.90237 6.2602 5.29289 5.86968Z" fill="#FFFBF2"/>
</svg>
