<svg width="24" height="25" viewBox="0 0 24 25" fill="none" xmlns="http://www.w3.org/2000/svg">
<path d="M4 7.57678C4 7.0245 4.44772 6.57678 5 6.57678H19C19.5523 6.57678 20 7.0245 20 7.57678C20 8.12907 19.5523 8.57678 19 8.57678H5C4.44772 8.57678 4 8.12907 4 7.57678ZM4 12.5768C4 12.0245 4.44772 11.5768 5 11.5768H19C19.5523 11.5768 20 12.0245 20 12.5768C20 13.1291 19.5523 13.5768 19 13.5768H5C4.44772 13.5768 4 13.1291 4 12.5768ZM4 17.5768C4 17.0245 4.44772 16.5768 5 16.5768H19C19.5523 16.5768 20 17.0245 20 17.5768C20 18.1291 19.5523 18.5768 19 18.5768H5C4.44772 18.5768 4 18.1291 4 17.5768Z" fill="#FFFBF2"/>
</svg>
