<svg width="24" height="25" viewBox="0 0 24 25" fill="none" xmlns="http://www.w3.org/2000/svg">
<path d="M10.4 6.17678C7.74903 6.17678 5.6 8.32582 5.6 10.9768C5.6 13.6277 7.74903 15.7768 10.4 15.7768C13.051 15.7768 15.2 13.6277 15.2 10.9768C15.2 8.32582 13.051 6.17678 10.4 6.17678ZM4 10.9768C4 7.44216 6.86538 4.57678 10.4 4.57678C13.9346 4.57678 16.8 7.44216 16.8 10.9768C16.8 12.4558 16.2983 13.8175 15.4559 14.9013L19.7657 19.2111C20.0781 19.5235 20.0781 20.03 19.7657 20.3425C19.4533 20.6549 18.9467 20.6549 18.6343 20.3425L14.3245 16.0327C13.2408 16.8751 11.879 17.3768 10.4 17.3768C6.86538 17.3768 4 14.5114 4 10.9768Z" fill="#FFFBF2"/>
</svg>
