<?xml version="1.0" standalone="no"?>
<!DOCTYPE svg PUBLIC "-//W3C//DTD SVG 20010904//EN"
 "http://www.w3.org/TR/2001/REC-SVG-20010904/DTD/svg10.dtd">
<svg version="1.0" xmlns="http://www.w3.org/2000/svg"
 width="700.000000pt" height="700.000000pt" viewBox="0 0 700.000000 700.000000"
 preserveAspectRatio="xMidYMid meet">
<metadata>
Created by potrace 1.14, written by Peter Selinger 2001-2017
</metadata>
<g transform="translate(0.000000,700.000000) scale(0.100000,-0.100000)"
fill="#000000" stroke="none">
<path d="M1145 6984 c-591 -92 -1044 -550 -1130 -1143 -14 -93 -15 -377 -13
-2391 4 -2282 4 -2285 25 -2375 113 -484 434 -847 885 -1001 219 -75 5 -69
2588 -69 2189 0 2320 1 2403 18 551 112 962 523 1074 1074 17 83 18 214 18
2403 0 2189 -1 2320 -18 2403 -110 541 -505 945 -1045 1069 l-97 22 -2300 2
c-1930 2 -2314 0 -2390 -12z m1085 -1459 c146 0 374 3 508 7 l243 8 -3 -58 -3
-57 -92 -7 c-104 -7 -212 -36 -264 -70 -45 -30 -86 -114 -99 -203 -7 -47 -10
-547 -8 -1514 l3 -1443 995 1408 995 1409 -3 65 c-9 240 -100 328 -362 348
l-95 7 -3 59 -3 58 178 -8 c226 -9 938 -9 1146 1 l158 7 -3 -58 -3 -59 -92 -7
c-179 -14 -271 -53 -315 -135 -55 -100 -53 -48 -53 -1808 0 -1534 1 -1634 18
-1700 41 -159 92 -187 415 -231 32 -5 32 -5 32 -60 l0 -56 -107 8 c-139 10
-1125 10 -1265 0 l-108 -8 0 56 c0 63 -19 53 147 76 136 18 182 36 233 89 26
26 51 63 57 86 31 104 34 238 31 1639 l-3 1410 -990 -1404 c-545 -771 -994
-1412 -999 -1422 -14 -28 8 -187 34 -245 50 -113 97 -133 388 -169 l42 -5 0
-52 0 -52 -740 0 -740 0 0 52 c0 59 -18 51 153 73 118 15 187 42 231 90 47 52
65 118 76 275 12 168 12 2949 0 3120 -14 201 -48 277 -146 322 -67 30 -172 53
-251 53 l-63 0 0 60 0 60 233 -7 c127 -5 351 -8 497 -8z"/>
</g>
</svg>
